<?xml version="1.0" encoding="UTF-8" standalone="no" ?>
<!DOCTYPE svg PUBLIC "-//W3C//DTD SVG 1.1//EN" "http://www.w3.org/Graphics/SVG/1.1/DTD/svg11.dtd">
<svg xmlns="http://www.w3.org/2000/svg" xmlns:xlink="http://www.w3.org/1999/xlink" version="1.1" width="100" height="100" viewBox="0 0 100 100" xml:space="preserve">
<desc>Created with Fabric.js 5.2.4</desc>
<defs>
</defs>
<g transform="matrix(1 0 0 1 50 50)" id="c9177627-8096-4556-aff7-9e021e8b0f9d"  >
<rect style="stroke: none; stroke-width: 1; stroke-dasharray: none; stroke-linecap: butt; stroke-dashoffset: 0; stroke-linejoin: miter; stroke-miterlimit: 4; fill: rgb(255,255,255); fill-rule: nonzero; opacity: 1; visibility: hidden;" vector-effect="non-scaling-stroke"  x="-50" y="-50" rx="0" ry="0" width="100" height="100" />
</g>
<g transform="matrix(0 0 0 0 0 0)" id="8edbbcf3-b61d-4f34-934c-e21eb7d6cf36"  >
</g>
<g transform="matrix(0.09 0 0 0.09 48.86 49.17)"  >
<path style="stroke: rgb(0,0,0); stroke-width: 0; stroke-dasharray: none; stroke-linecap: butt; stroke-dashoffset: 0; stroke-linejoin: miter; stroke-miterlimit: 4; fill: rgb(255,255,255); fill-rule: nonzero; opacity: 1;" vector-effect="non-scaling-stroke"  transform=" translate(-480, 480)" d="M 720 -400 L 720 -520 L 600 -520 L 600 -600 L 720 -600 L 720 -720 L 800 -720 L 800 -600 L 920 -600 L 920 -520 L 800 -520 L 800 -400 L 720 -400 Z M 360 -480 Q 294 -480 247 -527 Q 200 -574 200 -640 Q 200 -706 247 -753 Q 294 -800 360 -800 Q 426 -800 473 -753 Q 520 -706 520 -640 Q 520 -574 473 -527 Q 426 -480 360 -480 Z M 40 -160 L 40 -272 Q 40 -306 57.5 -334.5 Q 75 -363 104 -378 Q 166 -409 230 -424.5 Q 294 -440 360 -440 Q 426 -440 490 -424.5 Q 554 -409 616 -378 Q 645 -363 662.5 -334.5 Q 680 -306 680 -272 L 680 -160 L 40 -160 Z M 120 -240 L 600 -240 L 600 -272 Q 600 -283 594.5 -292 Q 589 -301 580 -306 Q 526 -333 471 -346.5 Q 416 -360 360 -360 Q 304 -360 249 -346.5 Q 194 -333 140 -306 Q 131 -301 125.5 -292 Q 120 -283 120 -272 L 120 -240 Z M 360 -560 Q 393 -560 416.5 -583.5 Q 440 -607 440 -640 Q 440 -673 416.5 -696.5 Q 393 -720 360 -720 Q 327 -720 303.5 -696.5 Q 280 -673 280 -640 Q 280 -607 303.5 -583.5 Q 327 -560 360 -560 Z M 360 -640 Z M 360 -240 Z" stroke-linecap="round" />
</g>
</svg>