<?xml version="1.0" encoding="UTF-8" standalone="no" ?>
<!DOCTYPE svg PUBLIC "-//W3C//DTD SVG 1.1//EN" "http://www.w3.org/Graphics/SVG/1.1/DTD/svg11.dtd">
<svg xmlns="http://www.w3.org/2000/svg" xmlns:xlink="http://www.w3.org/1999/xlink" version="1.1" width="100" height="100" viewBox="0 0 100 100" xml:space="preserve">
<desc>Created with Fabric.js 5.2.4</desc>
<defs>
</defs>
<rect x="0" y="0" width="100%" height="100%" fill="transparent"></rect>
<g transform="matrix(1 0 0 1 50 50)" id="73884aeb-9fe3-4475-8dcc-d8fc41ec664f"  >
<rect style="stroke: none; stroke-width: 1; stroke-dasharray: none; stroke-linecap: butt; stroke-dashoffset: 0; stroke-linejoin: miter; stroke-miterlimit: 4; fill: rgb(255,255,255); fill-rule: nonzero; opacity: 1; visibility: hidden;" vector-effect="non-scaling-stroke"  x="-50" y="-50" rx="0" ry="0" width="100" height="100" />
</g>
<g transform="matrix(Infinity NaN NaN Infinity 0 0)" id="644342a7-d19d-4b71-976e-2f894e7b7f47"  >
</g>
<g transform="matrix(0.09 0 0 0.09 50 50)" id="b1be822d-e1e5-45c6-96b4-0bd3a00f96ea"  >
<path style="stroke: rgb(0,0,0); stroke-width: 0; stroke-dasharray: none; stroke-linecap: butt; stroke-dashoffset: 0; stroke-linejoin: miter; stroke-miterlimit: 4; fill: rgb(255,255,255); fill-rule: nonzero; opacity: 1;" vector-effect="non-scaling-stroke"  transform=" translate(-485.66, 485)" d="M 200 -200 L 256 -200 L 601 -545 L 545 -601 L 200 -256 L 200 -200 Z M 772 -603 L 602 -771 L 658 -827 Q 681 -850 714.5 -850 Q 748 -850 771 -827 L 827 -771 Q 850 -748 851 -715.5 Q 852 -683 829 -660 L 772 -603 Z M 714 -544 L 290 -120 L 120 -120 L 120 -290 L 544 -714 L 714 -544 Z M 573 -573 L 545 -601 L 601 -545 L 573 -573 Z" stroke-linecap="round" />
</g>
</svg>